<svg width="64" height="64" viewBox="0 0 64 64" fill="none" xmlns="http://www.w3.org/2000/svg" aria-hidden="true">
  <path d="M32 10C18.2 10 7 18.7 7 29.5c0 7 4.7 13.1 11.8 16.5l-2.1 8.1c-.3 1.2 1.1 2.1 2.1 1.4l9.5-6.3c1.2.1 2.4.2 3.7.2 13.8 0 25-8.7 25-19.5S45.8 10 32 10Z" fill="#191919"/>
  <path d="M17.4 25.2h11.2v3.1h-3.9v9.9h-3.5v-9.9h-3.8v-3.1Zm17 0 5.1 13h-3.7l-.8-2.2h-4.8l-.8 2.2h-3.6l5.1-13h3.5Zm-.5 7.9-1.3-3.9-1.4 3.9h2.7Zm7-7.9h3.5v9.9h5.6v3.1h-9.1v-13Zm10.4 0h3.5v4.9l4.2-4.9h4.2l-4.8 5.4 5.1 7.6h-4.1l-3.4-5.2-1.2 1.3v3.9h-3.5v-13Z" fill="#FEE500"/>
</svg>
